<svg width="1080" height="644" viewBox="0 0 1080 644" fill="none" xmlns="http://www.w3.org/2000/svg">
<rect width="1080" height="644" fill="white"/>
<g clip-path="url(#clip0_632_2)">
<path fill-rule="evenodd" clip-rule="evenodd" d="M520.688 223.044V245.456H520.695C517.448 244.801 514.085 245.02 510.95 246.09C508.082 247.07 505.506 248.752 503.455 250.983C501.404 253.213 499.943 255.922 499.207 258.861C498.513 261.578 498.448 264.417 499.018 267.162C499.588 269.907 500.777 272.485 502.496 274.7C504.214 276.915 506.416 278.709 508.933 279.943C511.45 281.178 514.216 281.821 517.02 281.824C518.254 281.822 519.485 281.698 520.695 281.455V303.867C520.695 307.764 519.147 311.502 516.391 314.257C513.635 317.013 509.898 318.561 506 318.561H483.587V318.567C484.243 315.32 484.024 311.957 482.954 308.823C481.973 305.955 480.291 303.379 478.06 301.328C475.829 299.277 473.12 297.817 470.181 297.081C467.465 296.387 464.626 296.322 461.881 296.892C459.136 297.462 456.558 298.652 454.342 300.37C452.127 302.088 450.334 304.29 449.099 306.807C447.864 309.324 447.221 312.089 447.218 314.893C447.22 316.126 447.343 317.357 447.586 318.567L425.18 318.561C417.067 318.562 410.488 311.987 410.486 303.874V281.462C409.276 281.705 408.045 281.829 406.811 281.831C404.007 281.828 401.242 281.184 398.725 279.949C396.208 278.715 394.006 276.921 392.288 274.706C390.57 272.491 389.38 269.913 388.81 267.168C388.24 264.423 388.304 261.585 388.998 258.868C389.734 255.929 391.194 253.22 393.245 250.99C395.296 248.759 397.873 247.077 400.74 246.097C403.875 245.027 407.238 244.808 410.486 245.463H410.479V223.051C410.479 219.154 412.027 215.417 414.783 212.661C417.538 209.905 421.276 208.357 425.173 208.357H447.586C447.343 207.147 447.22 205.916 447.218 204.682C447.221 201.879 447.864 199.113 449.099 196.596C450.334 194.079 452.127 191.878 454.343 190.16C456.558 188.442 459.136 187.252 461.881 186.682C464.626 186.112 467.465 186.177 470.181 186.871C473.119 187.609 475.827 189.07 478.058 191.121C480.288 193.171 481.971 195.747 482.954 198.613C484.024 201.748 484.243 205.11 483.587 208.357H506C509.898 208.357 513.635 209.905 516.391 212.661C519.146 215.417 520.695 219.154 520.695 223.051M520.688 360.725V383.137H520.695C517.448 382.482 514.085 382.7 510.95 383.77C508.082 384.751 505.505 386.433 503.454 388.664C501.404 390.895 499.943 393.603 499.207 396.543C498.435 399.562 498.443 402.728 499.229 405.743C500.015 408.759 501.554 411.525 503.702 413.783C505.849 416.041 508.535 417.717 511.507 418.653C514.479 419.589 517.641 419.756 520.695 419.136V441.548C520.695 445.445 519.146 449.182 516.391 451.938C513.635 454.694 509.898 456.242 506 456.242H483.587V456.249C484.243 453.001 484.024 449.639 482.954 446.504C481.974 443.637 480.291 441.06 478.06 439.009C475.829 436.958 473.12 435.498 470.181 434.762C467.465 434.067 464.626 434.002 461.881 434.572C459.136 435.142 456.557 436.332 454.342 438.05C452.126 439.768 450.333 441.97 449.098 444.487C447.864 447.004 447.22 449.77 447.218 452.574C447.22 453.807 447.343 455.038 447.586 456.249L425.18 456.242C417.067 456.243 410.488 449.668 410.486 441.555V419.143C409.276 419.386 408.045 419.51 406.811 419.512C404.007 419.509 401.242 418.865 398.725 417.63C396.208 416.395 394.006 414.602 392.288 412.387C390.57 410.172 389.38 407.594 388.81 404.849C388.24 402.104 388.304 399.265 388.998 396.549C389.734 393.61 391.195 390.901 393.246 388.671C395.297 386.44 397.873 384.758 400.74 383.778C403.875 382.707 407.238 382.489 410.486 383.144H410.479V360.732C410.479 356.835 412.027 353.097 414.783 350.342C417.538 347.586 421.276 346.038 425.173 346.038H447.586C447.343 344.828 447.22 343.597 447.218 342.363C447.22 339.559 447.863 336.793 449.098 334.276C450.333 331.759 452.126 329.558 454.341 327.839C456.557 326.121 459.135 324.932 461.881 324.362C464.626 323.792 467.465 323.857 470.181 324.552C473.119 325.29 475.827 326.751 478.058 328.802C480.288 330.852 481.971 333.428 482.954 336.294C484.024 339.428 484.243 342.791 483.587 346.038H506C509.898 346.038 513.635 347.586 516.391 350.342C519.146 353.097 520.695 356.835 520.695 360.732M667.387 223.043V245.456H667.394C664.147 244.8 660.784 245.019 657.649 246.089C654.782 247.069 652.205 248.751 650.154 250.982C648.103 253.213 646.643 255.922 645.906 258.861C645.212 261.578 645.147 264.417 645.717 267.161C646.288 269.906 647.477 272.485 649.195 274.7C650.914 276.915 653.115 278.709 655.633 279.943C658.15 281.178 660.915 281.821 663.719 281.824C664.953 281.822 666.184 281.698 667.394 281.455V303.867C667.394 305.797 667.014 307.708 666.276 309.49C665.538 311.273 664.455 312.893 663.091 314.257C661.726 315.622 660.106 316.704 658.324 317.442C656.541 318.181 654.63 318.56 652.7 318.56H630.286V318.567C630.942 315.32 630.723 311.957 629.653 308.823C628.673 305.955 626.991 303.379 624.759 301.328C622.528 299.277 619.82 297.817 616.88 297.081C614.164 296.386 611.325 296.322 608.58 296.891C605.835 297.461 603.257 298.651 601.041 300.369C598.826 302.087 597.033 304.289 595.798 306.806C594.563 309.323 593.92 312.088 593.917 314.892C593.919 316.126 594.042 317.357 594.286 318.567L571.879 318.56C563.766 318.562 557.188 311.987 557.186 303.874V281.462C555.975 281.705 554.744 281.828 553.51 281.83C550.706 281.828 547.94 281.184 545.423 279.95C542.906 278.715 540.705 276.922 538.986 274.707C537.268 272.492 536.078 269.913 535.508 267.168C534.938 264.423 535.003 261.585 535.697 258.868C536.434 255.929 537.894 253.22 539.945 250.99C541.996 248.759 544.573 247.076 547.44 246.096C550.575 245.026 553.938 244.807 557.186 245.463H557.179V223.05C557.178 221.121 557.558 219.21 558.296 217.427C559.035 215.644 560.117 214.024 561.481 212.66C562.846 211.295 564.466 210.213 566.249 209.475C568.032 208.737 569.942 208.357 571.872 208.357H594.286C594.042 207.147 593.919 205.916 593.917 204.682C593.92 201.879 594.563 199.113 595.798 196.596C597.033 194.079 598.826 191.877 601.041 190.159C603.256 188.441 605.835 187.251 608.58 186.681C611.325 186.111 614.164 186.176 616.88 186.87C619.819 187.609 622.526 189.07 624.757 191.12C626.988 193.171 628.671 195.746 629.653 198.613C630.723 201.748 630.942 205.11 630.286 208.357H652.7C654.63 208.357 656.541 208.737 658.324 209.475C660.107 210.213 661.727 211.295 663.091 212.66C664.456 214.024 665.538 215.644 666.276 217.427C667.015 219.21 667.394 221.121 667.394 223.05M667.387 360.725V383.137H667.394C664.147 382.482 660.784 382.7 657.649 383.77C654.782 384.751 652.205 386.433 650.154 388.664C648.103 390.895 646.643 393.603 645.906 396.543C645.135 399.562 645.142 402.728 645.928 405.743C646.714 408.759 648.253 411.525 650.401 413.783C652.548 416.041 655.234 417.717 658.206 418.653C661.179 419.589 664.34 419.756 667.394 419.136V441.548C667.394 443.478 667.014 445.388 666.276 447.171C665.537 448.954 664.455 450.574 663.091 451.938C661.726 453.303 660.106 454.385 658.324 455.123C656.541 455.862 654.63 456.242 652.7 456.242H630.286V456.249C630.942 453.001 630.723 449.639 629.653 446.504C628.673 443.637 626.991 441.06 624.76 439.009C622.529 436.958 619.82 435.498 616.88 434.762C614.164 434.068 611.325 434.003 608.58 434.573C605.835 435.143 603.257 436.333 601.042 438.051C598.827 439.769 597.033 441.971 595.798 444.488C594.564 447.004 593.92 449.77 593.917 452.574C593.919 453.807 594.042 455.038 594.286 456.249L571.879 456.242C563.766 456.243 557.188 449.668 557.186 441.555V419.143C555.975 419.386 554.744 419.51 553.51 419.512C550.706 419.509 547.941 418.865 545.424 417.631C542.907 416.396 540.705 414.602 538.987 412.387C537.269 410.172 536.079 407.594 535.509 404.849C534.939 402.104 535.003 399.265 535.697 396.549C536.434 393.61 537.894 390.901 539.945 388.671C541.996 386.44 544.573 384.758 547.44 383.778C550.575 382.707 553.938 382.489 557.186 383.144H557.179V360.732C557.178 358.802 557.558 356.891 558.296 355.108C559.034 353.325 560.117 351.705 561.481 350.341C562.846 348.976 564.466 347.894 566.249 347.156C568.032 346.417 569.942 346.038 571.872 346.038H594.286C594.042 344.828 593.919 343.597 593.917 342.363C593.92 339.559 594.563 336.794 595.798 334.277C597.032 331.76 598.826 329.558 601.041 327.84C603.256 326.121 605.835 324.932 608.58 324.362C611.325 323.792 614.164 323.857 616.88 324.552C619.819 325.29 622.526 326.751 624.757 328.802C626.988 330.852 628.671 333.427 629.653 336.294C630.723 339.428 630.942 342.791 630.286 346.038H652.7C654.63 346.038 656.541 346.418 658.324 347.156C660.106 347.895 661.726 348.977 663.091 350.342C664.455 351.706 665.537 353.326 666.276 355.109C667.014 356.891 667.394 358.802 667.394 360.732" fill="#EB4432"/>
<path d="M694.14 246.49C699.837 239.896 711.318 240.474 711.318 240.474C711.318 240.474 713.554 251.742 707.851 258.332C702.154 264.925 690.679 264.351 690.679 264.351C690.679 264.351 688.443 253.083 694.14 246.49Z" fill="url(#paint0_linear_632_2)"/>
<path d="M355.54 285.545C358.266 285.545 360.475 283.335 360.475 280.61C360.475 277.884 358.266 275.675 355.54 275.675C352.814 275.675 350.605 277.884 350.605 280.61C350.605 283.335 352.814 285.545 355.54 285.545Z" fill="#EB4432"/>
<path d="M709.575 316.565C713.538 316.565 716.751 319.778 716.751 323.741C716.751 327.703 713.538 330.916 709.575 330.916C705.612 330.916 702.4 327.703 702.4 323.741C702.4 319.778 705.612 316.565 709.575 316.565Z" fill="#EB4432"/>
<path d="M463.083 469.083C466.686 469.083 469.607 472.004 469.607 475.607C469.607 479.209 466.686 482.13 463.083 482.13C459.481 482.13 456.56 479.209 456.56 475.607C456.56 472.004 459.481 469.083 463.083 469.083Z" fill="#E1E4E5"/>
<path d="M529.675 176.015C529.675 170.315 534.295 165.695 539.995 165.695C545.694 165.695 550.314 170.315 550.314 176.015C550.314 181.714 545.694 186.334 539.995 186.334C534.295 186.334 529.675 181.714 529.675 176.015Z" fill="#E1E4E5"/>
<path d="M574.324 493.956H574.2C573.466 483.288 565.737 483.124 565.737 483.124C565.737 483.124 574.26 482.953 574.26 470.628C574.26 482.953 582.784 483.124 582.784 483.124C582.784 483.124 575.057 483.288 574.324 493.956ZM326.448 338.727C325.109 338.067 324.266 336.614 324.38 335.166C324.497 333.601 325.566 332.248 327.081 331.811C327.497 331.691 327.938 331.647 328.372 331.6C330.973 331.305 333.578 331.058 336.135 330.449C337.266 330.176 338.378 330.359 339.381 330.997C340.709 331.844 341.3 333.088 341.135 334.62C340.967 336.16 340.065 337.214 338.614 337.764C338.34 337.866 338.056 337.938 337.767 337.979C334.783 338.419 331.803 338.908 328.79 339.133C327.965 339.195 327.184 339.096 326.448 338.727ZM338.476 349.361C337.916 350.513 336.965 351.286 335.775 351.585C332.85 352.31 329.894 352.984 326.87 353.104C324.108 353.209 322.267 350.618 323.173 348.043C323.691 346.569 324.83 345.734 326.351 345.574C328.313 345.371 330.218 344.937 332.154 344.62C332.771 344.518 333.344 344.303 333.932 344.114C335.42 343.636 336.984 344.1 337.984 345.275C338.954 346.417 339.143 348.007 338.476 349.361ZM347.021 341.652C347.514 340.648 348.31 340.007 349.371 339.69C350.972 339.205 352.596 338.823 354.234 338.502C354.982 338.356 355.697 338.149 356.39 337.802C356.886 337.553 357.428 337.409 357.983 337.378C358.537 337.348 359.091 337.433 359.611 337.626C360.132 337.82 360.606 338.118 361.006 338.503C361.406 338.889 361.722 339.352 361.934 339.865C362.802 341.959 361.762 344.257 359.561 345.081C359.259 345.194 358.942 345.299 358.62 345.357C356.191 345.784 353.783 346.33 351.383 346.898C349.894 347.248 348.57 346.905 347.534 345.73C346.524 344.577 346.338 343.033 347.021 341.652ZM351.228 351.819C352.829 352.666 353.46 353.957 353.481 355.556C353.503 357.135 352.784 358.353 351.393 359.127C350.886 359.411 350.332 359.607 349.77 359.745C347.789 360.223 345.819 360.715 343.838 361.192C342.576 361.491 341.368 361.352 340.325 360.52C339.18 359.6 338.688 358.378 338.955 356.934C339.233 355.413 340.174 354.388 341.659 353.936C342.808 353.589 343.972 353.305 345.146 353.036C346.033 352.832 346.861 352.581 347.638 352.03C348.791 351.202 350.083 351.264 351.228 351.819ZM374.781 355.97C374.387 356.776 373.796 357.411 372.975 357.793C372.512 358.008 372.041 358.202 371.552 358.322C369.896 358.734 368.254 359.189 366.612 359.645C364.124 360.333 361.848 358.739 361.714 356.273C361.631 354.726 362.499 353.336 364.017 352.636C365.144 352.115 366.345 351.813 367.545 351.529C368.187 351.376 368.781 351.171 369.355 350.829C370.905 349.899 372.653 350.126 373.969 351.359C375.216 352.531 375.548 354.402 374.781 355.97ZM304.699 335.945C305.137 335.142 305.725 334.57 306.505 334.213C307.038 333.969 307.593 333.79 308.176 333.735C309.727 333.589 311.284 333.393 312.842 333.324C315.666 333.204 317.588 335.708 316.697 338.345C316.233 339.727 315.196 340.541 313.777 340.825C313.322 340.916 312.84 340.912 312.373 340.97C311.114 341.116 309.845 341.174 308.586 341.374C307.098 341.614 305.862 341.059 304.994 339.823C304.115 338.589 304.097 337.258 304.699 335.945ZM348.632 320.749C350.113 321.508 350.893 322.866 350.78 324.369C350.655 325.984 349.805 327.064 348.317 327.651C347.985 327.786 347.616 327.884 347.262 327.899C345.884 327.97 344.505 328.009 343.125 328.018C342.348 328.021 341.626 327.77 340.98 327.31C339.704 326.379 339.132 324.861 339.504 323.37C339.888 321.855 341.081 320.692 342.613 320.547C344.127 320.402 345.659 320.402 347.18 320.369C347.69 320.36 348.192 320.491 348.632 320.749ZM721.247 411.325C719.908 410.664 719.066 409.212 719.18 407.764C719.297 406.199 720.366 404.846 721.88 404.409C722.296 404.288 722.737 404.244 723.171 404.197C725.772 403.902 728.377 403.655 730.934 403.047C732.066 402.774 733.178 402.956 734.181 403.595C735.509 404.442 736.099 405.686 735.935 407.218C735.766 408.757 734.865 409.811 733.413 410.362C733.14 410.464 732.856 410.536 732.567 410.577C729.583 411.017 726.602 411.505 723.589 411.73C722.764 411.792 721.984 411.693 721.247 411.325ZM733.275 421.958C732.716 423.111 731.764 423.884 730.575 424.183C727.649 424.908 724.694 425.582 721.67 425.701C718.908 425.806 717.067 423.216 717.972 420.641C718.49 419.167 719.629 418.332 721.15 418.172C723.113 417.968 725.017 417.534 726.954 417.218C727.571 417.116 728.144 416.901 728.731 416.711C730.219 416.234 731.784 416.698 732.783 417.872C733.754 419.014 733.942 420.605 733.275 421.958ZM741.821 414.249C742.314 413.246 743.109 412.604 744.171 412.287C745.772 411.803 747.395 411.42 749.034 411.099C749.781 410.954 750.497 410.746 751.19 410.4C751.686 410.151 752.228 410.007 752.782 409.976C753.336 409.946 753.89 410.03 754.411 410.224C754.931 410.417 755.406 410.716 755.805 411.101C756.205 411.486 756.521 411.949 756.734 412.462C757.602 414.556 756.561 416.854 754.361 417.678C754.058 417.791 753.741 417.897 753.42 417.955C750.99 418.381 748.582 418.927 746.182 419.496C744.694 419.846 743.37 419.503 742.334 418.327C741.324 417.175 741.138 415.632 741.821 414.249ZM746.028 424.417C747.629 425.264 748.259 426.556 748.281 428.153C748.302 429.733 747.583 430.951 746.193 431.724C745.686 432.008 745.132 432.205 744.57 432.344C742.589 432.821 740.619 433.313 738.638 433.79C737.375 434.088 736.168 433.95 735.125 433.118C733.98 432.198 733.488 430.976 733.754 429.531C734.032 428.011 734.973 426.986 736.458 426.534C737.607 426.188 738.771 425.903 739.946 425.633C740.832 425.43 741.661 425.178 742.438 424.627C743.59 423.8 744.882 423.862 746.028 424.417ZM769.581 428.568C769.186 429.374 768.595 430.009 767.775 430.391C767.311 430.606 766.841 430.8 766.351 430.919C764.695 431.331 763.053 431.787 761.412 432.243C758.923 432.932 756.648 431.336 756.514 428.87C756.43 427.323 757.299 425.934 758.816 425.234C759.944 424.713 761.144 424.41 762.344 424.126C762.986 423.973 763.581 423.769 764.154 423.426C765.705 422.496 767.452 422.723 768.769 423.956C770.016 425.128 770.347 426.999 769.581 428.568ZM699.499 408.542C699.937 407.74 700.524 407.167 701.305 406.81C701.837 406.566 702.392 406.388 702.976 406.333C704.526 406.187 706.084 405.991 707.642 405.922C710.465 405.802 712.387 408.305 711.496 410.943C711.032 412.325 709.996 413.138 708.577 413.422C708.121 413.513 707.64 413.51 707.172 413.568C705.914 413.713 704.645 413.771 703.386 413.971C701.897 414.212 700.661 413.657 699.793 412.42C698.915 411.187 698.896 409.855 699.499 408.542ZM743.432 393.347C744.912 394.106 745.693 395.463 745.579 396.966C745.454 398.582 744.604 399.662 743.116 400.248C742.784 400.383 742.415 400.482 742.061 400.497C740.679 400.561 739.303 400.612 737.925 400.616C737.147 400.619 736.425 400.367 735.78 399.907C734.504 398.977 733.931 397.459 734.303 395.967C734.687 394.453 735.881 393.29 737.413 393.144C738.926 392.999 740.459 393 741.979 392.967C742.489 392.958 742.992 393.089 743.432 393.347Z" fill="#E1E4E5"/>
</g>
<path d="M237.456 576.888V568.152C237.456 566.744 236.656 566.04 235.056 566.04H225.84C221.104 566.04 217.744 565.016 215.76 562.968C213.84 560.856 212.88 557.848 212.88 553.944V541.272C212.88 533.336 217.552 529.368 226.896 529.368H240.048C249.392 529.368 254.064 533.336 254.064 541.272V548.664H237.264V543.48C237.264 542.072 236.464 541.368 234.864 541.368H232.08C230.48 541.368 229.68 542.072 229.68 543.48V552.6C229.68 554.008 230.48 554.712 232.08 554.712H241.104C245.84 554.712 249.2 555.704 251.184 557.688C253.232 559.672 254.256 562.584 254.256 566.424V579.096C254.256 587.032 249.584 591 240.24 591H227.184C217.776 591 213.072 587.032 213.072 579.096V571.704H229.872V576.888C229.872 578.296 230.672 579 232.272 579H235.056C236.656 579 237.456 578.296 237.456 576.888ZM285.284 555.096H279.236V576.888C279.236 578.296 280.036 579 281.636 579H285.188V591H277.028C267.62 591 262.916 587.032 262.916 579.096V555.096H257.636V543.096H262.916V533.688H279.236V543.096H285.284V555.096ZM303.211 543.096H315.403C320.267 543.096 323.755 544.12 325.867 546.168C327.979 548.216 329.035 551.16 329.035 555V579.096C329.035 582.936 327.979 585.88 325.867 587.928C323.755 589.976 320.267 591 315.403 591H303.211C298.347 591 294.859 589.976 292.747 587.928C290.635 585.88 289.579 582.936 289.579 579.096V555C289.579 551.16 290.635 548.216 292.747 546.168C294.859 544.12 298.347 543.096 303.211 543.096ZM313.003 577.56V556.536C313.003 555.128 312.203 554.424 310.603 554.424H308.011C306.411 554.424 305.611 555.128 305.611 556.536V577.56C305.611 578.968 306.411 579.672 308.011 579.672H310.603C312.203 579.672 313.003 578.968 313.003 577.56ZM362.678 542.616H364.118V556.824H358.646C354.614 556.824 352.598 559 352.598 563.352V591H336.278V543.096H352.31V550.488C352.822 548.056 353.974 546.136 355.766 544.728C357.558 543.32 359.862 542.616 362.678 542.616ZM381.586 543.096H393.298C402.706 543.096 407.41 547.064 407.41 555V571.32H382.93V577.656C382.93 579.064 383.73 579.768 385.33 579.768H389.554C391.154 579.768 391.954 579 391.954 577.464V574.776H407.41V579.096C407.41 587.032 402.706 591 393.298 591H381.586C372.178 591 367.474 587.032 367.474 579.096V555C367.474 547.064 372.178 543.096 381.586 543.096ZM382.93 562.488H391.954V556.44C391.954 555.032 391.154 554.328 389.554 554.328H385.33C383.73 554.328 382.93 555.032 382.93 556.44V562.488ZM413.621 529.368H442.133C451.541 529.368 456.245 533.336 456.245 541.272V558.936C456.245 566.872 451.541 570.84 442.133 570.84H430.421V591H413.621V529.368ZM439.445 556.728V543.48C439.445 542.072 438.645 541.368 437.045 541.368H430.421V558.84H437.045C438.645 558.84 439.445 558.136 439.445 556.728ZM490.604 529.368H507.116V591H490.604V566.616H478.508V591H461.996V529.368H478.508V554.616H490.604V529.368ZM514.778 529.368H543.29C552.698 529.368 557.402 533.336 557.402 541.272V558.936C557.402 566.872 552.698 570.84 543.29 570.84H531.578V591H514.778V529.368ZM540.602 556.728V543.48C540.602 542.072 539.802 541.368 538.202 541.368H531.578V558.84H538.202C539.802 558.84 540.602 558.136 540.602 556.728ZM608.195 552.504V542.52C608.195 541.112 607.395 540.408 605.795 540.408H598.883V554.616H605.795C607.395 554.616 608.195 553.912 608.195 552.504ZM608.195 577.848V567.768C608.195 566.36 607.395 565.656 605.795 565.656H598.883V579.96H605.795C607.395 579.96 608.195 579.256 608.195 577.848ZM582.371 529.368H610.595C620.003 529.368 624.707 533.336 624.707 541.272V549.144C624.707 554.712 623.171 558.328 620.099 559.992C621.891 560.76 623.107 561.944 623.747 563.544C624.387 565.08 624.707 567.192 624.707 569.88V579.096C624.707 587.032 620.003 591 610.595 591H582.371V529.368ZM654.335 543.096H670.655V591H654.623V584.856C653.727 588.952 650.815 591 645.887 591H644.159C635.647 591 631.391 587.032 631.391 579.096V543.096H647.711V576.888C647.711 578.296 648.511 579 650.111 579H651.743C653.471 579 654.335 578.04 654.335 576.12V543.096ZM703.139 543.096H704.867C713.379 543.096 717.635 547.064 717.635 555V591H701.315V557.208C701.315 555.8 700.515 555.096 698.915 555.096H697.283C695.555 555.096 694.691 556.056 694.691 557.976V591H678.371V543.096H694.403V549.24C695.299 545.144 698.211 543.096 703.139 543.096ZM746.855 526.776H763.175V591H747.143V584.856C746.247 588.952 743.335 591 738.407 591H736.679C728.167 591 723.911 587.032 723.911 579.096V555C723.911 547.064 728.167 543.096 736.679 543.096H738.407C742.823 543.096 745.639 544.824 746.855 548.28V526.776ZM742.631 579H744.263C745.991 579 746.855 578.04 746.855 576.12V557.976C746.855 556.056 745.991 555.096 744.263 555.096H742.631C741.031 555.096 740.231 555.8 740.231 557.208V576.888C740.231 578.296 741.031 579 742.631 579ZM787.129 591H770.809V526.776H787.129V591ZM807.961 543.096H819.673C829.081 543.096 833.785 547.064 833.785 555V571.32H809.305V577.656C809.305 579.064 810.105 579.768 811.705 579.768H815.929C817.529 579.768 818.329 579 818.329 577.464V574.776H833.785V579.096C833.785 587.032 829.081 591 819.673 591H807.961C798.553 591 793.849 587.032 793.849 579.096V555C793.849 547.064 798.553 543.096 807.961 543.096ZM809.305 562.488H818.329V556.44C818.329 555.032 817.529 554.328 815.929 554.328H811.705C810.105 554.328 809.305 555.032 809.305 556.44V562.488ZM866.396 542.616H867.836V556.824H862.364C858.332 556.824 856.316 559 856.316 563.352V591H839.996V543.096H856.028V550.488C856.54 548.056 857.692 546.136 859.484 544.728C861.276 543.32 863.58 542.616 866.396 542.616Z" fill="#232323"/>
<path fill-rule="evenodd" clip-rule="evenodd" d="M332.647 50.0144C332.679 50.1323 332.696 50.2539 332.696 50.3761V69.3661C332.696 69.6099 332.631 69.8493 332.508 70.0602C332.385 70.2711 332.207 70.446 331.994 70.5673L315.915 79.7438V97.9325C315.915 98.4275 315.65 98.8844 315.217 99.1336L281.653 118.286C281.576 118.33 281.493 118.357 281.409 118.387C281.377 118.397 281.348 118.416 281.315 118.425C281.08 118.486 280.833 118.486 280.599 118.425C280.56 118.414 280.525 118.394 280.489 118.38C280.412 118.352 280.332 118.328 280.258 118.286L246.702 99.1336C246.489 99.0122 246.312 98.8373 246.188 98.6264C246.065 98.4155 246 98.1762 246 97.9325V40.9625C246 40.8379 246.017 40.7167 246.049 40.599C246.059 40.5592 246.084 40.5229 246.098 40.483C246.124 40.4104 246.148 40.3359 246.187 40.2684C246.213 40.2234 246.251 40.1871 246.283 40.1455C246.323 40.0902 246.36 40.033 246.407 39.9846C246.447 39.9448 246.499 39.9154 246.545 39.8807C246.595 39.8392 246.641 39.7942 246.698 39.7613H246.7L263.479 30.185C263.692 30.0638 263.932 30 264.178 30C264.423 30 264.664 30.0638 264.876 30.185L281.655 39.7613H281.659C281.714 39.7959 281.762 39.8392 281.812 39.879C281.858 39.9136 281.908 39.9448 281.948 39.9829C281.997 40.033 282.032 40.0902 282.074 40.1455C282.104 40.1871 282.144 40.2234 282.168 40.2684C282.209 40.3377 282.231 40.4104 282.259 40.483C282.273 40.5229 282.298 40.5592 282.308 40.6007C282.34 40.7187 282.357 40.8403 282.357 40.9625V76.5454L296.339 68.5648V50.3744C296.339 50.2532 296.356 50.1304 296.388 50.0144C296.4 49.9729 296.423 49.9365 296.437 49.8967C296.465 49.824 296.489 49.7496 296.527 49.6821C296.554 49.6371 296.592 49.6007 296.622 49.5592C296.664 49.5038 296.699 49.4467 296.747 49.3982C296.788 49.3584 296.838 49.329 296.884 49.2944C296.936 49.2529 296.981 49.2079 297.037 49.175H297.039L313.82 39.5986C314.032 39.4773 314.273 39.4134 314.518 39.4134C314.763 39.4134 315.004 39.4773 315.217 39.5986L331.996 49.175C332.055 49.2096 332.1 49.2529 332.153 49.2927C332.197 49.3273 332.247 49.3584 332.287 49.3965C332.336 49.4467 332.371 49.5038 332.413 49.5592C332.444 49.6007 332.483 49.6371 332.507 49.6821C332.547 49.7496 332.57 49.824 332.598 49.8967C332.614 49.9365 332.637 49.9729 332.647 50.0144ZM329.899 68.5648V52.7732L324.027 56.124L315.915 60.7538V76.5454L329.901 68.5648H329.899ZM313.12 97.1311V81.3292L305.141 85.8465L282.355 98.7373V114.688L313.12 97.1311ZM248.797 43.3596V97.1311L279.558 114.686V98.739L263.488 89.7234L263.483 89.72L263.476 89.7165C263.422 89.6854 263.376 89.6404 263.326 89.6023C263.282 89.5677 263.231 89.54 263.193 89.5019L263.189 89.4967C263.144 89.4534 263.113 89.3998 263.074 89.3513C263.039 89.3046 262.997 89.2648 262.969 89.2163L262.968 89.2111C262.936 89.1592 262.917 89.0969 262.894 89.038C262.872 88.9861 262.842 88.9377 262.828 88.8823V88.8805C262.81 88.8148 262.807 88.7455 262.8 88.678C262.793 88.6261 262.779 88.5742 262.779 88.5223V88.5188V51.3402L254.669 46.7086L248.797 43.3613V43.3596ZM264.179 32.9854L250.199 40.9625L264.176 48.9396L278.154 40.9607L264.176 32.9854H264.179ZM271.45 82.7692L279.56 78.1411V43.3596L273.688 46.7104L265.576 51.3402V86.1217L271.45 82.7692ZM314.518 42.399L300.54 50.3761L314.518 58.3532L328.495 50.3744L314.518 42.399ZM313.12 60.7538L305.008 56.124L299.136 52.7732V68.5648L307.246 73.1929L313.12 76.5454V60.7538ZM280.955 96.3402L301.458 84.7371L311.707 78.939L297.739 70.9671L281.657 80.1454L266.999 88.5102L280.955 96.3402Z" fill="#FF2D20"/>
<g clip-path="url(#clip1_632_2)">
<path d="M35 45.6646C35 37.0132 42.0068 30 50.6501 30H201.744V73.576H35V45.6646Z" fill="#F3F4F7"/>
<path d="M79.1525 44.3774H65.5671C64.3774 44.4016 63.3696 44.6568 62.5441 45.1429C61.7428 45.6047 61.3421 46.5039 61.3421 47.8406C61.3421 48.8614 61.6821 49.5905 62.362 50.028C63.0661 50.4655 63.8794 50.6842 64.8022 50.6842L72.0866 50.6477C72.3538 50.672 72.6329 50.6842 72.9243 50.6842C73.2157 50.6842 73.5071 50.6964 73.7984 50.7206C74.6484 50.7693 75.4861 50.9151 76.3116 51.1581C77.137 51.3768 77.8655 51.79 78.4969 52.3976C79.0796 52.9323 79.5167 53.5764 79.8081 54.3298C80.0994 55.0832 80.2815 55.8609 80.3544 56.6629C80.3786 56.906 80.3908 57.149 80.3908 57.392C80.415 57.6108 80.4272 57.8417 80.4272 58.0847C80.3786 61.1228 79.5409 63.1885 77.9141 64.2822C76.2874 65.3516 74.0776 65.8862 71.2853 65.8862H56.6437V61.2199H70.4112C71.6254 61.2441 72.6694 61.0499 73.5435 60.6366C74.4418 60.2233 74.806 59.2877 74.6362 57.8295C74.5147 56.6872 74.0898 55.9824 73.3614 55.7151C72.6329 55.4477 71.7711 55.3019 70.7754 55.2776L64.2923 55.2412C61.5971 55.2654 59.4604 54.7308 57.8821 53.6371C56.3281 52.5191 55.5632 50.5141 55.5875 47.6219C55.636 44.5839 56.4738 42.5181 58.1006 41.4244C59.7517 40.3065 61.9735 39.7475 64.7658 39.7475L79.1525 39.711V44.3774ZM90.2569 44.3044H81.8434V39.7475H104.425V44.3044H95.9387V65.8862H90.2569V44.3044ZM111.824 48.8614C111.654 49.5176 111.532 50.186 111.46 50.8665C111.387 51.5227 111.35 52.1789 111.35 52.8351C111.35 53.5156 111.387 54.1961 111.46 54.8766C111.557 55.5328 111.678 56.1768 111.824 56.8087C112.091 57.9267 112.528 58.899 113.135 59.7252C113.766 60.5514 114.641 61.1592 115.757 61.548C116.17 61.6938 116.607 61.8032 117.069 61.8761C117.53 61.949 117.991 61.9855 118.453 61.9855C118.914 61.9855 119.375 61.949 119.837 61.8761C120.298 61.8032 120.735 61.6938 121.148 61.548C122.265 61.1592 123.139 60.5514 123.77 59.7252C124.402 58.899 124.839 57.9267 125.081 56.8087C125.227 56.1768 125.336 55.5328 125.409 54.8766C125.506 54.1961 125.555 53.5156 125.555 52.8351C125.555 52.1789 125.506 51.5227 125.409 50.8665C125.336 50.186 125.227 49.5298 125.081 48.8979C124.839 47.7799 124.402 46.8077 123.77 45.9814C123.139 45.1308 122.265 44.5232 121.148 44.1586C120.735 44.0128 120.298 43.9034 119.837 43.8305C119.375 43.7576 118.914 43.7212 118.453 43.7212C117.991 43.7212 117.53 43.7576 117.069 43.8305C116.607 43.9034 116.17 44.0128 115.757 44.1586C114.641 44.5475 113.778 45.1551 113.171 45.9814C112.564 46.8077 112.115 47.7799 111.824 48.8979V48.8614ZM106.142 47.0022C106.773 45.0822 107.696 43.5267 108.91 42.3358C110.148 41.1206 111.763 40.2579 113.754 39.7475C114.483 39.5774 115.235 39.4437 116.012 39.3465C116.789 39.2493 117.566 39.2006 118.343 39.2006C119.169 39.1764 120.007 39.2128 120.856 39.31C121.706 39.4072 122.52 39.5652 123.297 39.7839C125.239 40.27 126.83 41.1206 128.068 42.3358C129.306 43.551 130.217 45.1186 130.8 47.0386C131.042 47.9136 131.224 48.8371 131.346 49.8093C131.492 50.7814 131.564 51.7536 131.564 52.7257C131.564 53.7708 131.504 54.7915 131.382 55.788C131.261 56.7845 131.067 57.7323 130.8 58.6315C130.217 60.6001 129.294 62.1919 128.032 63.4072C126.769 64.598 125.142 65.4245 123.151 65.8862C122.374 66.0807 121.573 66.2143 120.747 66.2872C119.922 66.3843 119.084 66.4331 118.234 66.4331C117.481 66.4331 116.729 66.3843 115.976 66.2872C115.223 66.1901 114.483 66.0562 113.754 65.8862C111.787 65.4245 110.173 64.598 108.91 63.4072C107.648 62.1919 106.725 60.6001 106.142 58.6315C105.899 57.7809 105.705 56.8574 105.559 55.8609C105.438 54.8644 105.377 53.8558 105.377 52.8351C105.377 51.8143 105.438 50.8057 105.559 49.8093C105.681 48.7885 105.875 47.8649 106.142 47.0386V47.0022ZM135.259 39.711H148.808C149.075 39.7353 149.33 39.7475 149.573 39.7475C149.84 39.7475 150.107 39.7596 150.374 39.7839C151.37 39.8326 152.341 39.9905 153.288 40.2579C154.259 40.5252 155.109 41.0234 155.837 41.7525C156.493 42.3845 156.979 43.1257 157.294 43.9763C157.634 44.827 157.841 45.7019 157.913 46.6012C157.913 46.7713 157.913 46.9414 157.913 47.1115C157.938 47.2816 157.95 47.4518 157.95 47.6219C157.974 49.4447 157.549 51.0245 156.675 52.3612C155.825 53.6736 154.49 54.5485 152.669 54.986L159.188 65.8862H152.997L147.242 55.6057H140.759V65.8862H135.259V39.711ZM147.497 44.3774H140.759V50.9758H147.497C147.545 51.0001 147.594 51.0123 147.643 51.0123C147.691 51.0123 147.74 51.0123 147.788 51.0123C148.954 51.0123 150.01 50.8422 150.957 50.5019C151.928 50.1374 152.402 49.2017 152.377 47.6948C152.377 46.1394 151.867 45.2037 150.848 44.8877C149.852 44.5718 148.735 44.4138 147.497 44.4138V44.3774ZM173.356 44.268C171.341 44.2923 169.836 44.8391 168.84 45.9085C167.844 46.9535 167.286 48.4482 167.165 50.3925L182.389 50.3561V54.9131H167.128C167.128 55.8366 167.225 56.7237 167.42 57.5743C167.638 58.425 168.063 59.2026 168.694 59.9075C169.253 60.5637 169.909 60.9769 170.661 61.147C171.438 61.2928 172.227 61.3657 173.029 61.3657C173.077 61.3657 173.126 61.3657 173.174 61.3657C173.247 61.3657 173.308 61.3657 173.356 61.3657L182.389 61.3293V65.8862H173.101C171.62 65.8862 170.188 65.7526 168.804 65.4852C167.444 65.2178 166.157 64.598 164.943 63.626C163.486 62.4352 162.466 60.9889 161.883 59.2877C161.301 57.5622 160.985 55.8001 160.937 54.0017C160.912 53.6128 160.9 53.2361 160.9 52.8715C160.924 52.507 160.949 52.1424 160.973 51.7779C161.24 47.6462 162.357 44.6083 164.324 42.6639C166.315 40.7196 169.289 39.7475 173.247 39.7475L182.389 39.711V44.268H173.356Z" fill="#EB4433"/>
<path d="M104.145 73.5762H201.744V101.488C201.744 110.139 194.738 117.152 186.094 117.152H104.145V73.5762Z" fill="#4F5B93"/>
<path d="M128.673 87.953H122.299V95.6816H129C130.336 95.6816 131.489 95.4264 132.461 94.916C133.432 94.3814 133.917 93.3606 133.917 91.8537C133.966 90.1767 133.444 89.1195 132.351 88.6821C131.283 88.2204 130.057 87.9894 128.673 87.9894V87.953ZM116.799 83.2866H128.745C128.77 83.3108 128.794 83.3231 128.818 83.3231C128.867 83.3231 128.903 83.3231 128.928 83.3231C129.389 83.3231 129.85 83.3231 130.312 83.3231C130.773 83.3231 131.234 83.3473 131.696 83.396C132.521 83.4447 133.335 83.566 134.136 83.7605C134.961 83.9306 135.726 84.2222 136.43 84.6355C137.718 85.3888 138.628 86.4218 139.162 87.7342C139.721 89.0466 140.012 90.4197 140.036 91.8537C140.06 93.1661 139.83 94.4298 139.344 95.6451C138.883 96.8604 138.106 97.8689 137.013 98.6709C136.09 99.3271 135.083 99.7646 133.99 99.9833C132.922 100.178 131.829 100.299 130.712 100.348C130.421 100.348 130.13 100.348 129.838 100.348C129.547 100.348 129.255 100.348 128.964 100.348L122.299 100.311V109.462H116.799V83.2866ZM149.331 83.2866V93.8952H159.42V83.2866H164.919V109.462H159.42V98.5251H149.331V109.462H143.831V83.2866H149.331ZM182.167 87.953H175.794V95.6816H182.495C183.831 95.6816 184.984 95.4264 185.955 94.916C186.926 94.3814 187.412 93.3606 187.412 91.8537C187.461 90.1767 186.939 89.1195 185.846 88.6821C184.777 88.2204 183.551 87.9894 182.167 87.9894V87.953ZM170.294 83.2866H182.24C182.264 83.3108 182.289 83.3231 182.313 83.3231C182.362 83.3231 182.398 83.3231 182.422 83.3231C182.884 83.3231 183.345 83.3231 183.806 83.3231C184.268 83.3231 184.729 83.3473 185.19 83.396C186.016 83.4447 186.829 83.566 187.631 83.7605C188.456 83.9306 189.221 84.2222 189.925 84.6355C191.212 85.3888 192.123 86.4218 192.657 87.7342C193.215 89.0466 193.507 90.4197 193.531 91.8537C193.555 93.1661 193.325 94.4298 192.839 95.6451C192.378 96.8604 191.601 97.8689 190.508 98.6709C189.585 99.3271 188.578 99.7646 187.485 99.9833C186.416 100.178 185.324 100.299 184.207 100.348C183.916 100.348 183.624 100.348 183.333 100.348C183.041 100.348 182.75 100.348 182.459 100.348L175.794 100.311V109.462H170.294V83.2866Z" fill="white"/>
</g>
<defs>
<linearGradient id="paint0_linear_632_2" x1="717.099" y1="223.743" x2="677.464" y2="295.635" gradientUnits="userSpaceOnUse">
<stop stop-color="white"/>
<stop offset="1" stop-color="#EEEEEE"/>
</linearGradient>
<clipPath id="clip0_632_2">
<rect width="634.5" height="423" fill="white" transform="translate(223 110)"/>
</clipPath>
<clipPath id="clip1_632_2">
<rect width="166.744" height="90" fill="white" transform="translate(35 30)"/>
</clipPath>
</defs>
</svg>
